<svg width="24" height="20" viewBox="0 0 24 20" fill="none" xmlns="http://www.w3.org/2000/svg">
<path d="M0.5 1.75928H3.1407C3.98715 1.75928 4.74194 2.29213 5.0253 3.08975L5.60526 4.72224M5.60526 4.72224L8.56647 13.0575C8.91539 14.0396 9.96005 14.5892 10.967 14.3203L21.016 11.637C21.8912 11.4033 22.5 10.6106 22.5 9.70472V6.72224C22.5 5.61767 21.6046 4.72224 20.5 4.72224H5.60526Z" stroke="white" stroke-width="1.3"/>
<path d="M5.41892 17.2407C5.41892 18.1244 6.13526 18.8407 7.01892 18.8407C7.90257 18.8407 8.61892 18.1244 8.61892 17.2407C8.61892 16.3571 7.90257 15.6407 7.01892 15.6407C6.13526 15.6407 5.41892 16.3571 5.41892 17.2407ZM6.2041 17.5407H7.01892V16.9407H6.2041V17.5407Z" fill="white"/>
<path d="M16.0107 17.2407C16.0107 18.1244 16.7271 18.8407 17.6107 18.8407C18.4944 18.8407 19.2107 18.1244 19.2107 17.2407C19.2107 16.3571 18.4944 15.6407 17.6107 15.6407C16.7271 15.6407 16.0107 16.3571 16.0107 17.2407ZM16.7959 17.5407H17.6107V16.9407H16.7959V17.5407Z" fill="white"/>
</svg>
